<?xml version="1.0" ?><!DOCTYPE svg  PUBLIC '-//W3C//DTD SVG 1.1//EN'  'http://www.w3.org/Graphics/SVG/1.1/DTD/svg11.dtd'><svg enable-background="new 0 0 24 24" height="24px" id="Layer_1" version="1.1" viewBox="0 0 24 24" width="24px" xml:space="preserve" xmlns="http://www.w3.org/2000/svg" xmlns:xlink="http://www.w3.org/1999/xlink"><g><path d="M4,23c0,0.6,0.4,1,1,1h18c0.6,0,1-0.4,1-1v-1H4V23z"/><path d="M4,8c-2.2,0-4,1.8-4,4s1.8,4,4,4h1.3c1.7,3,5,5,8.7,5c5.5,0,10-4.5,10-10V8H4z M4,14c-1.1,0-2-0.9-2-2s0.9-2,2-2v1   c0,1,0.2,2.1,0.5,3H4z M22,11c0,4.4-3.6,8-8,8s-8-3.6-8-8v-1h16V11z"/><path d="M11.3,2.6c0,0,0.2-0.3-0.1-0.5c-0.2-0.2-0.6,0-0.6,0c-0.8,0.8-0.7,2,0.1,2.8c0.5,0.5,0.5,1,0.1,1.4c0,0-0.2,0.4,0.1,0.6   s0.7,0,0.7,0c0.8-0.8,0.8-2-0.2-2.8C10.8,3.8,10.8,3.1,11.3,2.6z"/><path d="M14.3,2.6c0,0,0.2-0.3-0.1-0.5c-0.2-0.2-0.6,0-0.6,0c-0.8,0.8-0.7,2,0.1,2.8c0.5,0.5,0.5,1,0.1,1.4c0,0-0.2,0.4,0.1,0.6   s0.7,0,0.7,0c0.8-0.8,0.8-2-0.2-2.8C13.8,3.8,13.8,3.1,14.3,2.6z"/><path d="M17.3,2.6c0,0,0.2-0.3-0.1-0.5c-0.2-0.2-0.6,0-0.6,0c-0.8,0.8-0.7,2,0.1,2.8c0.5,0.5,0.5,1,0.1,1.4c0,0-0.2,0.4,0.1,0.6   s0.7,0,0.7,0c0.8-0.8,0.8-2-0.2-2.8C16.8,3.8,16.8,3.1,17.3,2.6z"/></g></svg>